<?xml version="1.0" standalone="no"?>
<!DOCTYPE svg PUBLIC "-//W3C//DTD SVG 20010904//EN"
 "http://www.w3.org/TR/2001/REC-SVG-20010904/DTD/svg10.dtd">
<svg version="1.0" xmlns="http://www.w3.org/2000/svg"
 width="434.000000pt" height="576.000000pt" viewBox="0 0 434.000000 576.000000"
 preserveAspectRatio="xMidYMid meet">
<metadata>
Created by potrace 1.16, written by Peter Selinger 2001-2019
</metadata>
<g transform="translate(0.000000,576.000000) scale(0.100000,-0.100000)"
fill="#000000" stroke="none">
<path d="M230 5728 c-76 -29 -160 -114 -188 -191 -21 -55 -22 -73 -22 -437 l0
-380 655 0 655 0 0 515 0 515 -522 -1 c-507 0 -525 -1 -578 -21z m902 -503 l0
-100 -441 -3 -441 -2 0 105 0 105 441 -2 441 -3 0 -100z"/>
<path d="M1550 5235 l0 -515 1395 0 1396 0 -3 393 -3 392 -28 57 c-35 71 -110
140 -183 167 -54 21 -68 21 -1314 21 l-1260 0 0 -515z m829 463 c46 -35 92
-114 121 -206 9 -29 20 -53 24 -53 4 -1 61 50 127 111 65 61 119 108 119 103
0 -5 -21 -38 -46 -73 l-45 -65 41 43 c22 23 46 42 53 42 7 0 19 6 26 13 26 24
-6 -25 -59 -93 l-51 -65 56 59 c30 33 55 56 55 51 0 -14 -70 -96 -163 -192
l-89 -91 17 -54 c21 -63 59 -141 90 -183 31 -43 28 -70 -10 -70 -16 0 -37 5
-45 10 -13 9 -13 8 -1 -8 25 -31 3 -30 -42 2 -30 22 -53 51 -75 96 -18 35 -32
68 -32 74 0 27 -25 17 -87 -37 -37 -32 -95 -78 -128 -101 -33 -24 -74 -57 -92
-74 -17 -16 -36 -26 -41 -23 -6 3 -14 1 -18 -5 -5 -8 -3 -9 7 -4 8 5 10 4 6 0
-4 -5 -14 -10 -22 -12 -8 -2 -21 -4 -29 -6 -8 -2 -51 -36 -95 -76 -45 -40 -81
-68 -81 -63 0 6 38 46 85 89 47 43 93 89 101 103 13 20 8 17 -22 -10 -78 -72
-87 -72 -19 -2 38 40 65 72 60 72 -6 1 66 75 160 165 l170 163 -18 69 c-21 80
-66 179 -101 226 -14 18 -27 44 -28 58 -3 20 1 24 26 24 16 0 31 6 33 13 7 18
15 15 62 -20z m575 -409 c13 -7 30 -24 36 -40 10 -23 9 -34 -6 -65 -26 -51
-63 -76 -123 -82 -49 -4 -50 -5 -56 -43 -7 -38 -8 -39 -46 -39 -21 0 -39 2
-39 4 0 2 14 63 30 136 17 73 30 134 30 136 0 9 151 3 174 -7z m270 1 c57 -21
58 -92 2 -145 l-33 -31 18 -35 c27 -51 24 -59 -21 -59 -38 0 -42 3 -62 45 -26
52 -49 56 -59 9 -9 -46 -17 -54 -55 -54 -19 0 -34 2 -34 4 0 2 14 63 30 136
17 73 30 134 30 136 0 9 160 3 184 -6z m316 -2 c0 -7 -3 -23 -6 -35 -6 -21
-12 -23 -80 -23 -67 0 -74 -2 -74 -20 0 -18 7 -20 60 -20 62 0 69 -6 54 -44
-5 -12 -21 -16 -70 -16 -57 0 -64 -2 -64 -20 0 -18 7 -20 69 -20 l68 0 -6 -32
-7 -33 -104 -3 c-57 -1 -107 1 -112 6 -5 5 2 55 17 118 14 60 27 119 30 132 5
21 10 22 115 22 81 0 110 -3 110 -12z m215 0 c30 -13 31 -19 7 -48 -17 -21
-21 -22 -54 -10 -37 14 -72 8 -66 -11 2 -6 27 -20 56 -31 62 -23 75 -52 48
-103 -24 -43 -65 -65 -123 -65 -43 0 -113 28 -113 45 0 3 12 16 27 29 25 22
29 22 49 9 24 -15 89 -14 89 2 0 5 -22 17 -48 26 -26 10 -55 23 -63 29 -33 28
-2 109 50 130 31 13 111 12 141 -2z m250 0 c30 -14 32 -29 5 -53 -16 -14 -24
-15 -51 -6 -48 17 -69 14 -69 -9 0 -11 7 -20 15 -20 8 0 33 -7 55 -16 50 -20
61 -52 35 -100 -33 -62 -137 -84 -202 -44 -40 24 -41 31 -5 57 24 18 30 19 47
7 10 -8 34 -14 52 -14 48 0 43 27 -8 40 -45 12 -79 41 -79 68 0 26 38 82 63
92 32 13 112 12 142 -2z"/>
<path d="M2172 4473 l2158 -3 3 -2063 2 -2062 3 2068 2 2067 -2162 -2 -2163
-3 2157 -2z"/>
<path d="M2015 3834 c-333 -49 -604 -182 -831 -409 -164 -164 -274 -342 -348
-565 -47 -143 -66 -267 -66 -429 0 -263 60 -487 190 -714 164 -287 454 -524
765 -625 173 -57 242 -67 455 -67 212 0 284 11 454 66 387 127 730 461 871
849 126 348 108 759 -46 1089 -89 191 -258 399 -427 526 -153 115 -363 211
-561 256 -84 20 -378 34 -456 23z m1220 -1546 c-7 -29 -18 -82 -24 -118 -30
-156 -161 -390 -293 -522 -276 -277 -729 -381 -1091 -251 -321 115 -581 364
-661 632 -27 91 -26 92 42 71 31 -10 112 -38 179 -64 180 -68 239 -79 438 -79
247 -1 339 23 824 212 297 117 465 167 567 170 l31 1 -12 -52z"/>
</g>
</svg>
